<?xml version="1.0" encoding="utf-8"?>
<!-- Generator: Adobe Illustrator 16.0.3, SVG Export Plug-In . SVG Version: 6.00 Build 0)  -->
<!DOCTYPE svg PUBLIC "-//W3C//DTD SVG 1.1//EN" "http://www.w3.org/Graphics/SVG/1.1/DTD/svg11.dtd" [
	<!ENTITY ns_extend "http://ns.adobe.com/Extensibility/1.0/">
	<!ENTITY ns_ai "http://ns.adobe.com/AdobeIllustrator/10.0/">
	<!ENTITY ns_graphs "http://ns.adobe.com/Graphs/1.0/">
	<!ENTITY ns_vars "http://ns.adobe.com/Variables/1.0/">
	<!ENTITY ns_imrep "http://ns.adobe.com/ImageReplacement/1.0/">
	<!ENTITY ns_sfw "http://ns.adobe.com/SaveForWeb/1.0/">
	<!ENTITY ns_custom "http://ns.adobe.com/GenericCustomNamespace/1.0/">
	<!ENTITY ns_adobe_xpath "http://ns.adobe.com/XPath/1.0/">
]>
<svg version="1.1"
	 id="svg2" xmlns:x="&ns_extend;" xmlns:i="&ns_ai;" xmlns:graph="&ns_graphs;" xmlns:dc="http://purl.org/dc/elements/1.1/" xmlns:cc="http://creativecommons.org/ns#" xmlns:rdf="http://www.w3.org/1999/02/22-rdf-syntax-ns#" xmlns:svg="http://www.w3.org/2000/svg"
	 xmlns="http://www.w3.org/2000/svg" xmlns:xlink="http://www.w3.org/1999/xlink" x="0px" y="0px" width="951px" height="467px"
	 viewBox="107.473 7.412 951 467" enable-background="new 107.473 7.412 951 467" xml:space="preserve">
<metadata  id="metadata8">
	<rdf:RDF>
		<cc:Work  rdf:about="">
			<dc:format>image/svg+xml</dc:format>
			<dc:type  rdf:resource="http://purl.org/dc/dcmitype/StillImage"></dc:type>
		</cc:Work>
	</rdf:RDF>
	<sfw  xmlns="&ns_sfw;">
		<slices></slices>
		<sliceSourceBounds  width="1075.946" height="683.824" y="54.588" x="-232.473" bottomLeftOrigin="true"></sliceSourceBounds>
	</sfw>
</metadata>
<g id="g10" transform="matrix(1.3333333,0,0,-1.3333333,0,683.824)">
	<g id="g12">
		<g>
			<defs>
				<rect id="SVGID_1_" x="-134.493" y="-85.478" width="1075.946" height="683.824"/>
			</defs>
			<clipPath id="SVGID_2_">
				<use xlink:href="#SVGID_1_"  overflow="visible"/>
			</clipPath>
			<g id="g14" clip-path="url(#SVGID_2_)">
				<g id="g20" transform="translate(496.5945,177.8614)">
					<path id="path22" d="M0,0c2.027,1.488,4.04,3.066,6.034,4.744h-51.441C-47.784,3.71-49.695,2.037-51.016,0H0z"/>
				</g>
				<g id="g24" transform="translate(524.8964,207.8095)">
					<path id="path26" d="M0,0c1.002,1.529,1.98,3.119,2.946,4.743h-31.975C-30.442,3.08-31.882,1.501-33.346,0H0z"/>
				</g>
				<g id="g28" transform="translate(443.5931,172.4029)">
					<path id="path30" d="M0,0C-0.184-1.556-0.08-3.162,0.337-4.744h36.252C39.355-3.292,42.133-1.715,44.908,0H0z"/>
				</g>
				<g id="g32" transform="translate(446.9271,162.2007)">
					<path id="path34" d="M0,0c2.413-2.591,5.815-4.077,9.357-4.077c1.548,0,3.125,0.284,4.655,0.884
						C16.55-2.199,19.147-1.139,21.781,0H0z"/>
				</g>
				<g id="g36" transform="translate(530.9142,218.0117)">
					<path id="path38" d="M0,0c0.766,1.436,1.518,2.907,2.254,4.414h-29.943C-28.688,2.893-29.7,1.411-30.735,0H0z"/>
				</g>
				<g id="g40" transform="translate(517.6836,197.9366)">
					<path id="path42" d="M0,0c1.153,1.419,2.284,2.896,3.403,4.414h-35.351C-33.771,2.848-35.621,1.377-37.493,0H0z"/>
				</g>
				<g id="g44" transform="translate(508.666,188.0636)">
					<path id="path46" d="M0,0c1.447,1.407,2.875,2.882,4.288,4.414h-41.042C-39.461,2.813-42.199,1.348-44.956,0H0z"/>
				</g>
				<g id="g48" transform="translate(535.7104,227.8847)">
					<path id="path50" d="M0,0c0.633,1.439,1.251,2.914,1.856,4.414h-28.557c-0.792-1.516-1.6-2.988-2.423-4.414H0z"/>
				</g>
				<g id="g52" transform="translate(539.6664,237.7576)">
					<path id="path54" d="M0,0c0.563,1.548,1.109,3.133,1.644,4.745h-27.521C-26.56,3.121-27.255,1.535-27.967,0H0z"/>
				</g>
				<g id="g56" transform="translate(635.147,247.9598)">
					<path id="path58" d="M0,0h47.26c0.045,0.155,0.094,0.306,0.136,0.465c0.391,1.436,0.494,2.878,0.371,4.279h-61.37
						C-9.576,3.423-5.061,1.874,0,0"/>
				</g>
				<g id="g60" transform="translate(604.2563,258.162)">
					<path id="path62" d="M0,0h76.803c-1.32,2.078-3.262,3.764-5.659,4.744H-10.67C-8.114,2.914-4.698,1.544,0,0"/>
				</g>
				<g id="g64" transform="translate(587.9199,270.795)">
					<path id="path66" d="M0,0c0.313-0.881,0.658-1.684,1.031-2.431h64.455c-0.58,0.165-1.163,0.327-1.726,0.502
						c-4.039,1.253-8.401,2.522-12.687,3.913H-0.625C-0.428,1.324-0.237,0.666,0,0"/>
				</g>
				<g id="g68" transform="translate(649.0802,242.5013)">
					<path id="path70" d="M0,0.001c3.497-1.443,11.048-4.154,17.218-4.154c0,0,12.125,0.602,13.434,4.154H0z"/>
				</g>
				<g id="g72" transform="translate(617.1516,328.8227)">
					<path id="path74" d="M0.001,0c-0.746-0.381-1.673-0.781-2.732-1.221H8.03C8.284,2.375,5.293,2.706,0.001,0"/>
				</g>
				<g id="g76" transform="translate(536.447,378.5926)">
					<path id="path78" d="M0,0h66.725c-1.311,1.502-2.667,2.985-4.061,4.442H2.729C1.87,2.997,0.961,1.514,0,0"/>
				</g>
				<g id="g80" transform="translate(540.5753,348.2476)">
					<path id="path82" d="M-0.001,0C1.375,1.499,2.69,2.967,3.959,4.408h-28.578c-1.44-1.469-2.944-2.94-4.506-4.408H-0.001z"/>
				</g>
				<g id="g84" transform="translate(607.6625,373.1281)">
					<path id="path86" d="M0.001,0h-34.884c1.69-1.439,3.388-3.015,5.158-4.772H3.481C2.391-3.18,1.228-1.587,0.001,0"/>
				</g>
				<g id="g88" transform="translate(563.6169,408.313)">
					<path id="path90" d="M0,0c-0.286,0.092-0.58,0.198-0.861,0.28c-0.095,0.031-0.19,0.059-0.286,0.088
						c-0.076,0.021-0.155,0.05-0.231,0.07C-1.459,0.46-1.541,0.471-1.623,0.491c-0.208,0.051-0.416,0.098-0.624,0.135
						c-0.139,0.026-0.278,0.046-0.416,0.065c-0.198,0.028-0.394,0.051-0.593,0.067C-3.413,0.771-3.571,0.779-3.73,0.785
						c-0.173,0.006-0.346,0.009-0.517,0.006c-0.18-0.002-0.359-0.009-0.538-0.021c-0.151-0.01-0.3-0.023-0.45-0.039
						C-5.426,0.71-5.616,0.684-5.805,0.653C-5.945,0.63-6.082,0.604-6.221,0.575c-0.19-0.04-0.379-0.084-0.567-0.134
						c-0.139-0.037-0.277-0.077-0.413-0.119c-0.179-0.056-0.356-0.115-0.53-0.18C-7.852,0.097-7.97,0.049-8.089,0H0z"/>
				</g>
				<g id="g92" transform="translate(530.7664,338.0843)">
					<path id="path94" d="M0,0c1.56,1.538,3.066,3.054,4.509,4.543h-30.132c-0.757-0.639-1.528-1.278-2.312-1.914
						C-28.872,1.868-29.634,0.973-30.233,0H0z"/>
				</g>
				<g id="g96" transform="translate(557.5118,368.3566)">
					<path id="path98" d="M-0.001,0c1.299,1.651,2.54,3.243,3.735,4.772h-28.418c-1.084-1.569-2.221-3.16-3.425-4.772H-0.001z"/>
				</g>
				<g id="g100" transform="translate(549.228,358.1205)">
					<path id="path102" d="M0,0c1.371,1.634,2.679,3.225,3.93,4.772H-24.1C-25.394,3.191-26.749,1.599-28.171,0H0z"/>
				</g>
				<g id="g104" transform="translate(617.083,358.1205)">
					<path id="path106" d="M0,0c-0.728,1.568-1.563,3.162-2.489,4.772h-31.387c1.393-1.51,2.659-3.118,3.825-4.772H0z"/>
				</g>
				<g id="g108" transform="translate(549.889,402.8485)">
					<path id="path110" d="M0.001,0C-0.73-1.346-1.495-2.816-2.337-4.442H31.78C29.551-2.815,27.335-1.324,25.161,0H0.001z"/>
				</g>
				<g id="g112" transform="translate(544.7063,392.9417)">
					<path id="path114" d="M0.001,0C-0.749-1.417-1.548-2.9-2.4-4.442h51.28C47.24-2.908,45.573-1.425,43.892,0H0.001z"/>
				</g>
				<g id="g116" transform="translate(620.2264,348.2476)">
					<path id="path118" d="M0.001,0c-0.208,1.422-0.548,2.893-1.018,4.408h-28.704c0.866-1.491,1.676-2.972,2.448-4.408H0.001z"/>
				</g>
				<g id="g120" transform="translate(619.2566,338.0843)">
					<path id="path122" d="M0.001,0c0.543,1.428,0.917,2.946,1.099,4.543h-24.347c0.993-1.744,1.963-3.29,2.958-4.543H0.001z"/>
				</g>
				<g id="g124" transform="translate(631.0689,358.1205)">
					<path id="path126" d="M-0.001,0h54.243c0.041,0.573,0.067,1.141,0.072,1.698c0.01,1.051-0.089,2.074-0.275,3.074H0.09
						C-0.009,3.2-0.046,1.606-0.001,0"/>
				</g>
				<g id="g128" transform="translate(632.5418,372.3799)">
					<path id="path130" d="M0,0c-0.294-1.298-0.557-2.644-0.775-4.023h51.268c-1.005,1.703-2.304,3.299-3.86,4.771H0.21
						C0.142,0.497,0.059,0.261,0,0"/>
				</g>
				<g id="g132" transform="translate(634.509,342.6277)">
					<path id="path134" d="M0,0c0.722-1.558,1.576-3.077,2.572-4.543h38.44c1.519,1.48,2.837,3,3.967,4.543H0z"/>
				</g>
				<g id="g136" transform="translate(641.2103,383.035)">
					<path id="path138" d="M0.001,0C-2.302-0.949-4.31-2.406-5.859-4.442h35.881C26.252-2.523,21.925-1.021,17.281,0H0.001z"/>
				</g>
				<g id="g140" transform="translate(641.5466,332.8393)">
					<path id="path142" d="M0,0c1.802-1.706,2.597-3.001,5.171-4.044c4.57-1.853,11.038-1.712,14.128-0.334
						C22.39-3.001,24.493-1.895,27.385,0H0z"/>
				</g>
				<g id="g144" transform="translate(631.5547,352.6561)">
					<path id="path146" d="M0,0c0.223-1.479,0.527-2.951,0.92-4.408h50.31C51.899-2.93,52.425-1.456,52.824,0H0z"/>
				</g>
				<g id="g148" transform="translate(525.9962,192.4781)">
					<path id="path150" d="M0,0c0.051-1.557,0.331-3.052,0.842-4.414h18.863C22.177-2.926,24.695-1.429,27.391,0H0z"/>
				</g>
				<g id="g152" transform="translate(533.0416,207.8095)">
					<path id="path154" d="M-0.001,0h109.78c-0.211,0.3-0.431,0.596-0.672,0.883c-1.065,1.26-2.171,2.55-3.308,3.861H5.882
						C3.785,3.307,1.781,1.728-0.001,0"/>
				</g>
				<g id="g156" transform="translate(526.6712,197.9366)">
					<path id="path158" d="M0.001,0h39.727c5.172,1.598,11.165,2.804,18.423,3.36C67.854,4.104,78.379,2.609,86.459,0h31.54
						c0.35,1.443,0.441,2.938,0.255,4.414H1.955C1.12,3.018,0.449,1.549,0.001,0"/>
				</g>
				<g id="g160" transform="translate(592.5668,229.4456)">
					<path id="path162" d="M0,0C-0.493-0.017-0.972-0.013-1.47-0.038c-4.302-0.212-8.717-0.735-13.116-1.523h46.814
						c-1.417,1.463-2.865,2.936-4.348,4.414H-3.372C-2.23,1.915-1.1,0.967,0,0"/>
				</g>
				<g id="g164" transform="translate(623.8868,192.4781)">
					<path id="path166" d="M-0.001,0c2.033-2.623,5.351-3.737,8.5-3.833c1.68-0.156,3.422,0.116,5.272,0.983
						c1.075,0.464,2.104,1.083,3.044,1.877C17.181-0.666,17.515-0.338,17.832,0H-0.001z"/>
				</g>
				<g id="g168" transform="translate(614.856,237.7576)">
					<path id="path170" d="M-0.001,0c-1.655,1.581-3.346,3.163-5.073,4.745h-35.039C-37.6,3.245-35.171,1.659-32.82,0H-0.001z"/>
				</g>
				<g id="g172" transform="translate(603.6743,247.9598)">
					<path id="path174" d="M0,0c-1.828,1.591-3.69,3.173-5.585,4.744h-46.412C-47.587,3.427-43.371,1.829-39.34,0H0z"/>
				</g>
				<g id="g176" transform="translate(558.2495,222.4261)">
					<path id="path178" d="M0,0c-2.084-0.799-4.116-1.651-6.07-2.563c-1.207-0.565-2.496-1.181-3.832-1.85h85.667
						C74.457-2.962,73.11-1.49,71.725,0H0z"/>
				</g>
				<g id="g180" transform="translate(585.0168,262.9057)">
					<path id="path182" d="M0,0h-48.958c0.56-1.667,1.585-3.283,3.204-4.744H6.277C4.219-3.141,2.127-1.558,0,0"/>
				</g>
				<g id="g184" transform="translate(524.825,252.7035)">
					<path id="path186" d="M0,0h-7.156C-7.71-1.622-8.281-3.198-8.861-4.744h19.576C6.773-3.186,3.007-1.46,0,0"/>
				</g>
				<g id="g188" transform="translate(237.1117,295.1879)">
					<path id="path190" d="M0,0c-0.53,0.004-2.634-0.668-3.458-2.352l-2.778-5.665c-0.45-0.919,0.068-1.307,0.774-1.314
						c0.706-0.006,1.6,0.371,2.051,1.289l3.641,7.424C0.379-0.311,0.315-0.08,0,0"/>
				</g>
				<g id="g192" transform="translate(258.4693,309.4505)">
					<path id="path194" d="M0,0l-10.173-20.743c-0.301-0.612-0.036-0.614,1.907-0.633c0.352-0.002,0.468-0.31,0.317-0.616
						l-2.328-4.747c-1.839-3.75-7.812-8.156-12.756-8.112c-4.059,0.037-5.085,1.199-5.546,2.971
						c-0.179,0.54-0.368,0.696-0.545,0.697c-0.089,0-0.516-0.149-1.347-0.757c-1.534-1.14-4.365-2.575-7.455-2.548
						c-3.707,0.033-7.867,2.761-4.113,10.415l2.778,5.664c2.966,6.047,9.22,9.221,14.939,10.937
						c7.607,2.316,8.374,3.154,9.688,5.833c0.525,1.073,0.259,1.613-0.537,1.62c-1.412,0.012-1.637-0.446-3.364-3.967
						c-0.188-0.383-0.653-0.61-1.095-0.606l-11.477,0.641c-0.617,0.005-0.43,0.387,1.334,3.985
						c2.966,6.047,11.015,11.433,20.196,11.351C0.133,11.3,2.928,5.971,0,0 M-22.959-34.851v0.004l0,0V-34.851z M3.192,9.322
						c-1.539,2.493-4.998,5.479-12.738,5.548l-0.237,0.001c-9.771,0-19.277-5.47-23.123-13.312c-1.963-4.002-2.625-5.35-1.456-7.242
						c0.223-0.362,0.754-1.058,1.708-1.455c-4.508-2.471-7.771-5.729-9.737-9.736l-2.777-5.664
						c-2.794-5.695-1.868-9.342-0.599-11.397c1.541-2.498,4.461-4.008,7.81-4.037h0.117c3.137,0,5.822,1.091,7.566,2.043
						c1.938-2.059,4.89-2.386,7.209-2.406h0.105h0.001c6.409,0,13.477,5.303,15.81,10.062l2.328,4.746
						c0.611,1.247,0.555,2.673-0.15,3.818c-0.145,0.235-0.312,0.45-0.499,0.643L3.128-1.534C5.06,2.404,5.082,6.26,3.192,9.322"/>
				</g>
				<g id="g196" transform="translate(520.9567,306.1175)">
					<path id="path198" d="M0.001,0c-0.973,0.008-1.75-0.676-2.164-1.518l-8.936-18.218c-0.451-0.918-0.309-1.535,0.662-1.542
						c0.97-0.01,1.714,0.599,2.164,1.518L0.661-1.544C1.075-0.702,0.883-0.008,0.001,0"/>
				</g>
				<g id="g200" transform="translate(582.7997,302.4151)">
					<path id="path202" d="M0.001,0c2.029-0.018,2.294-0.021,2.483,0.363C4.884,5.261,5.06,5.798,3.648,5.81
						C2.941,5.816,2.1,5.363,1.536,4.215l-1.878-3.828C-0.455,0.158-0.265,0.003,0.001,0"/>
				</g>
				<g id="g204" transform="translate(591.8158,289.343)">
					<path id="path206" d="M0.001,0l-2.404-4.899c-4.805-9.797-14-12.637-22.119-12.564c-9.445,0.084-11.978,5.948-7.699,14.674
						l9.309,18.983c4.431,9.032,14.115,12.329,21.265,12.265c9.974-0.089,12.447-6.798,8.769-14.3L4.832,9.49
						C4.643,9.107,4.14,8.804,3.698,8.808l-14.742,0.13c-0.352,0.004-0.642-0.224-0.828-0.607l-5.895-12.016
						c-0.602-1.226-0.208-1.69,0.586-1.697c0.618-0.006,1.639,0.447,2.202,1.594l2.29,4.67c0.149,0.306,0.565,0.609,1.094,0.605
						L-0.47,0.85C0.023,0.768,0.225,0.46,0.001,0 M-44.415-16.564l3.709,5.458h3.056c0.163-1.941,0.746-3.457,1.433-4.571
						c0.179-0.291,0.385-0.589,0.621-0.887H-44.415z M-37.092-5.787c-0.179-0.652-0.306-1.269-0.404-1.865
						c-0.248,0.067-0.495,0.127-0.744,0.176L-37.092-5.787z M-49.682-17.239l-12.094,0.107c-0.353,0.003-0.593,0.236-0.457,0.696
						l13.538,44.775c0.06,0.307,0.35,0.535,0.614,0.533l11.565-0.103c0.353-0.003,0.505-0.235,0.444-0.542l-4.6-13.72
						c-0.139-0.459-0.075-0.691,0.013-0.693c0.089,0,0.378,0.228,0.693,0.687l8.977,13.604c0.275,0.381,0.741,0.608,1.005,0.605
						l11.388-0.101c0.354-0.002,0.469-0.31,0.192-0.693l-30.27-44.549C-48.952-17.015-49.329-17.243-49.682-17.239 M-66.336-5.099
						c-3.492-7.118-11.949-11.886-21.04-11.806c-9.004,0.08-12.782,5.034-9.328,12.076l10.849,22.12
						c3.454,7.043,11.909,11.811,21.001,11.73c9.092-0.081,12.855-4.881,9.177-12.381L-66.336-5.099z M-105.188-15.978
						c-0.224-0.458-0.816-0.761-1.346-0.756l-15.976,0.142c-0.53,0.004-0.823,0.315-0.56,0.85l11.75,23.959
						c0.3,0.611,0.324,0.842,0.148,0.843c-0.177,0.003-0.502-0.303-1.37-1.524l-16.113-23.458c-0.313-0.458-0.831-0.609-1.27-0.605
						l-9.977,0.09c-0.441,0.003-0.643,0.313-0.557,0.851l6.674,21.926c0.374,1.304,0.133,1.536-0.13,1.539
						c-0.267,0.002-0.63-0.378-0.93-0.991l-10.998-22.426c-0.264-0.537-0.678-0.841-1.296-0.835l-15.007,0.134
						c-0.352,0.002-0.517,0.388-0.368,0.694l27.439,55.953c0.188,0.383,0.642,0.763,1.081,0.759l23.659-0.21
						c0.441-0.004,0.645-0.313,0.507-0.773l-4.822-15.256c-0.173-0.537-0.11-0.767,0.066-0.77c0.177-0.001,0.504,0.303,0.766,0.84
						l9.513,15.06c0.315,0.458,0.855,0.837,1.386,0.833l24.541-0.219c0.617-0.005,0.82-0.315,0.558-0.85L-105.188-15.978z
						 M26.542-6.692H0.588c0.044,0.088,0.095,0.17,0.138,0.259l2.401,4.896c0.05,0.099,0.069,0.203,0.11,0.304h19.207
						c-0.558,1.369-0.847,2.834-0.807,4.414H2.327C1.731,3.742,0.975,4.142,0.1,4.288l-9.79,0.581l0.28,0.57L3.707,5.322h0.001
						c1.77,0,3.478,1.059,4.251,2.634L8.295,8.64h14.194c0.352,1.483,0.778,2.948,1.273,4.414H10.438
						c0.872,1.875,1.428,3.708,1.657,5.459h13.742c0.592,1.431,1.22,2.899,1.871,4.414H11.938c-0.261,1.194-0.688,2.324-1.326,3.356
						c-0.423,0.688-0.987,1.411-1.718,2.103h21.123c0.58,1.412,1.165,2.879,1.745,4.414H10.98c-1.418-0.848-2.817-1.806-4.157-2.872
						c-1.97,1.148-4.685,1.982-8.44,2.015l-0.233,0.001c-3.916,0-8.599-0.911-12.959-3.087c-0.059,0.401-0.174,0.795-0.365,1.17
						c-0.643,1.265-1.945,2.057-3.391,2.067l-11.423,0.101c-1.201,0-2.455-0.572-3.359-1.496c-0.029,0.039-0.062,0.078-0.091,0.116
						c-0.735,0.906-1.849,1.43-3.045,1.438l-11.599,0.104c-1.874,0-3.51-1.293-3.977-3.107l-0.516-1.704
						c-1.685,2.344-5.146,4.896-12.248,4.96l-0.256,0.001c-5.14,0-10.11-1.374-14.298-3.769l4.668,9.521h2.458
						c1.992,1.772,3.911,3.52,5.745,5.237h-9.554c-0.653,0.408-1.427,0.653-2.29,0.661l-24.58,0.219
						c-1.453,0-2.908-0.718-3.911-1.904c-0.072,0.125-0.152,0.245-0.239,0.362c-0.746,1.01-1.922,1.596-3.226,1.608L-134,44.651
						c-1.718,0-3.407-1.087-4.204-2.709L-165.638-14c-0.608-1.23-0.542-2.714,0.173-3.873c0.71-1.15,1.942-1.842,3.287-1.851
						l15.056-0.134c1.513,0,2.865,0.658,3.785,1.804c0.1-0.157,0.209-0.308,0.331-0.451c0.749-0.889,1.866-1.405,3.073-1.417
						l10.027-0.089c1.529,0,2.949,0.661,3.873,1.783c0.737-1.147,2.036-1.836,3.491-1.849l15.971-0.142h0.053
						c1.874,0,3.665,1.088,4.459,2.707l1.67,3.407c0.119-0.232,0.223-0.47,0.36-0.693c2.193-3.552,6.675-5.539,12.623-5.592
						l0.258-0.001c10.283,0,19.904,5.53,23.94,13.758l0.779,1.591l-3.145-10.406c-0.374-1.266-0.161-2.57,0.583-3.577
						c0.74-1,1.898-1.579,3.185-1.592l5.752-0.051c-0.021-0.104-0.05-0.206-0.067-0.311h41.583c-0.502,0.34-1.022,0.66-1.528,0.997
						c5.704,1.437,10.427,4.455,13.876,8.876H33.32C30.721-9.781,28.408-8.324,26.542-6.692"/>
				</g>
				<g id="g208" transform="translate(350.5732,273.8072)">
					<path id="path210" d="M0,0c-2.082,0.095-4.579,0.425-6.069,0.823c-0.465-0.227-0.868-0.686-1.054-1.068
						C-8.138-2.311-4.114-2.424-3.408-2.43c1.5-0.013,3.681,0.274,4.319,1.575C1.136-0.395,0.882-0.009,0,0"/>
				</g>
				<g id="g212" transform="translate(360.0298,297.2466)">
					<path id="path214" d="M0,0c0.882-0.008,1.586,0.525,2.073,1.519l4.13,8.419c0.488,0.997,0.221,1.537-0.574,1.543
						c-0.882,0.008-1.726-0.445-2.213-1.44L-0.75,1.544C-1.238,0.549-0.883,0.008,0,0"/>
				</g>
				<g id="g216" transform="translate(436.743,319.166)">
					<path id="path218" d="M0.001,0c2.736-0.024,3-0.027,2.738-0.562l-5.443-11.099c-0.149-0.306-0.527-0.534-0.88-0.53
						c-2.736,0.025-3.088,0.027-3.39-0.586l-9.872-20.13c-0.151-0.306-0.037-0.614,0.229-0.617c3.091-0.027,3.442-0.031,3.217-0.49
						c-2.139-4.362-5.855-11.941-14.859-11.86c-5.297,0.046-7.79,2.913-3.286,12.099l10.397,21.202
						c0.149,0.306,0.086,0.538-0.267,0.54c-1.854,0.017-2.032,0.018-1.768,0.554l5.48,11.175c0.113,0.23,0.401,0.458,0.579,0.457
						c2.03-0.018,2.208-0.021,2.47,0.516l3.303,6.736c0.149,0.305,0.527,0.533,0.88,0.529L2.24,7.822
						c0.883-0.008,0.807-0.161,0.545-0.697l-3.154-6.429C-0.593,0.236-0.442,0.004,0.001,0 M-41.983-45.292
						c-0.113-0.229-0.491-0.456-0.755-0.454l-12.182,0.109c-0.354,0.002-0.506,0.235-0.355,0.541l15.541,31.689
						c0.562,1.147,0.044,1.537-0.662,1.542c-0.706,0.007-1.6-0.369-2.164-1.518l-15.503-31.612c-0.151-0.306-0.565-0.61-0.918-0.606
						l-12.623,0.113c-0.354,0.002-0.518,0.388-0.368,0.694l27.928,56.948c0.338,0.689,0.803,0.916,1.421,0.91l12.446-0.111
						c0.618-0.005,0.771-0.237,0.546-0.697l-6.832-13.931c-0.264-0.535-0.161-0.69-0.073-0.69c0.088-0.002,0.516,0.149,1.108,0.451
						c2.101,1.211,4.706,2.187,7.267,2.164c3.708-0.032,7.537-1.988,4.608-7.959L-41.983-45.292z M-70.09-33.043l-1.549-3.159
						c-0.545,0.617-1.165,1.156-1.856,1.611C-72.314-34.166-71.182-33.636-70.09-33.043 M-74.626-46.77
						c-3.304-6.734-10.908-10.127-18.587-10.059c-9.887,0.089-12.124,4.567-9.984,8.93c1.277,2.602,3.363,4.507,5.566,5.562
						c-0.785,0.93-0.804,2.699,0.434,5.225c1.351,2.755,5.135,5.95,7.93,7.309c-1.52,1.782-1.937,5.092-0.436,8.153l5.707,11.634
						c3.115,6.354,10.64,10.669,18.319,10.6c2.561-0.023,4.492-0.424,5.616-1.203c0.943,0.837,4.565,3.342,6.507,3.325
						c2.208-0.021,2.639-4.021,2.413-4.481c-0.375-0.765-5.036-1.953-5.792-2.408c0.459-1.234,0.052-3.69-1.261-6.369l-5.593-11.405
						c-3.116-6.353-10.552-10.669-18.143-10.602c-1.061,0.009-2.662,0.178-3.432,0.415c-0.616-0.533-0.98-0.914-1.131-1.219
						c-0.449-0.919,0.436-1.465,3.83-1.956C-73.783-36.551-71.098-39.573-74.626-46.77 M-104.885-45.193l-12.976,0.115
						c-0.354,0.003-0.518,0.389-0.368,0.696l21.735,44.317c0.263,0.537,0.803,0.916,1.333,0.911l12.534-0.111
						c0.53-0.004,0.697-0.39,0.508-0.774l-21.847-44.548C-104.116-44.892-104.531-45.196-104.885-45.193 M-115.916-19.418
						l-12.199-24.876c-0.188-0.383-0.692-0.687-1.132-0.683l-12.889,0.116c-0.353,0.002-0.505,0.234-0.318,0.618l21.921,44.7
						c0.188,0.383,0.478,0.611,0.831,0.608l12.447-0.111c0.53-0.004-0.053-2.459,0.388-2.463c0.177-0.003,0.428,0.149,0.792,0.53
						c1.784,1.83,3.763,1.889,6.5,1.865c0.265-0.002,0.417-0.234,0.267-0.541l-5.406-11.022c-0.15-0.307-0.439-0.535-0.88-0.531
						C-110.096-11.168-112.875-13.218-115.916-19.418 M-132.288-15.601l-1.069-2.177c-0.177,0.439-0.375,0.864-0.604,1.264
						C-133.373-16.227-132.823-15.918-132.288-15.601 M-164.117-44.666l-16.419,0.145c-0.617,0.005-0.695,0.392-0.47,0.85
						l27.292,55.647c0.261,0.535,0.803,0.915,1.421,0.91l16.419-0.147c11.475-0.101,14.366-7.584,11.251-13.937
						c-2.253-4.592-5.795-11.634-15.874-13.927l-0.075-0.153c4.698-1.81,5.891-6.972,2.962-12.943
						C-139.525-32.124-145.844-44.829-164.117-44.666 M-93.547,4.138l4.654,9.491c0.188,0.382,0.855,0.838,1.296,0.834l10.858-0.097
						c0.352-0.002,0.68-0.237,0.493-0.619L-81.05,3.95c-0.226-0.46-0.766-0.839-1.296-0.834l-10.769,0.095
						C-93.556,3.215-93.773,3.678-93.547,4.138 M4.559,2.829L5.913,5.59c0.265,0.538,1.068,2.175-0.009,3.917
						c-0.727,1.179-1.948,1.784-3.634,1.799l-12.749,0.113c-1.693,0-3.264-0.974-4-2.48l-2.6-5.302h-0.047
						c-1.748,0-3.122-1.212-3.705-2.407l-0.119-0.24c-1.619,1.726-4.15,2.718-7.179,2.744l-0.122,0.001
						c-0.587,0-1.166-0.039-1.73-0.107l3.479,7.096c0.64,1.307,0.602,2.715-0.108,3.863c-0.422,0.684-1.444,1.833-3.535,1.85
						l-12.501,0.112c-1.986,0-3.636-1.043-4.527-2.861l-3.98-8.115c-0.737,0.389-1.553,0.61-2.423,0.618
						c-2.354,0-5.129-1.579-6.924-2.801c-1.413,0.436-3.118,0.66-5.147,0.679l-0.212,0.001c-4.553,0-8.981-1.283-12.726-3.514
						c-0.018,0.242-0.059,0.481-0.121,0.716c0.312,0.341,0.579,0.725,0.784,1.144l4.804,9.795c0.6,1.221,0.541,2.625-0.157,3.756
						c-0.721,1.168-2.005,1.872-3.432,1.884l-10.896,0.097c-1.739,0-3.638-1.196-4.418-2.785l-4.656-9.493
						c-0.277-0.567-0.416-1.168-0.436-1.765c-0.123-0.055-0.24-0.122-0.358-0.187c-0.605,0.4-1.311,0.645-2.073,0.653l-0.661,0.003
						c-1.6,0-3.252-0.074-4.876-0.657c-0.616,0.463-1.359,0.715-2.142,0.721l-12.484,0.111c-0.105,0-0.208-0.014-0.312-0.022
						c-0.144,1.851-0.682,3.625-1.663,5.216c-1.474,2.386-5.273,6.402-14.16,6.481l-16.464,0.146c-1.905,0-3.686-1.123-4.537-2.86
						l-27.288-55.642c-0.668-1.356-0.632-2.815,0.1-4.003c0.724-1.175,1.986-1.857,3.466-1.87l16.417-0.146l0.379-0.001h0.002
						c7.005,0,13.025,1.696,18.041,5.032c-0.43-1.161-0.354-2.411,0.275-3.426c0.695-1.118,1.926-1.791,3.283-1.8l12.894-0.115
						h0.034c1.773,0,3.482,1.059,4.253,2.632l12.199,24.876c2.029,4.137,3.565,5.551,5.123,6.026l-13.696-27.925
						c-0.601-1.23-0.53-2.712,0.186-3.867c0.71-1.146,1.94-1.834,3.282-1.843l10.727-0.096c-0.554-2.288-0.242-4.506,0.936-6.414
						c1.451-2.352,4.882-5.169,12.985-5.241l0.261-0.001h0.001c9.334,0,17.35,4.342,21.137,11.369
						c0.071-0.004,0.138-0.028,0.21-0.028l12.661-0.112c0.701,0,1.396,0.182,2.021,0.508c0.59-0.347,1.277-0.54,2.002-0.545
						l12.185-0.109h0.03h0.001c1.591,0,3.187,0.99,3.881,2.405l1.69,3.448c0.177-0.803,0.468-1.578,0.916-2.303
						c1.485-2.407,4.163-3.645,7.957-3.678l0.173-0.001l0,0c11.076,0,15.649,9.33,17.845,13.809
						c0.842,1.716,0.193,3.105-0.127,3.622c-0.398,0.648-0.853,1.07-1.425,1.346l7.314,14.913l0.938-0.006
						c1.698,0,3.268,0.978,3.998,2.48L5.866-2.099C6.737-0.327,6.083,1.077,5.76,1.599C5.415,2.162,5.022,2.554,4.559,2.829"/>
				</g>
				<g id="g220" transform="translate(294.3405,320.5859)">
					<path id="path222" d="M0,0c-0.352,0.004-0.693-0.148-0.843-0.453l-4.805-9.798c-0.15-0.306,0.003-0.538,0.356-0.541
						c1.236-0.012,2.897,0.666,3.647,2.197l3.229,6.582C2.261-0.635,1.06-0.009,0,0"/>
				</g>
				<g id="g224" transform="translate(283.3295,298.3127)">
					<path id="path226" d="M0,0c-0.354,0.004-0.643-0.224-0.83-0.608l-5.481-11.174c-0.152-0.307-0.086-0.538,0.356-0.541
						c1.411-0.013,3.099,0.895,3.736,2.195l3.942,8.037C2.36-0.789,1.412-0.012,0,0"/>
				</g>
				<g id="g228" transform="translate(203.3641,49.752)">
					<path id="path230" d="M0,0c-1.426,0-2.091,0.605-3.327,1.411c3.136,4.033,6.463,8.67,6.463,14.214
						c0,1.815-0.76,5.041-3.041,5.041c-2.757,0-6.559-4.939-8.079-7.057c-4.943-6.754-4.848-8.568-4.373-12.4
						c-1.996-1.815-6.558-7.459-9.22-7.459c-1.14,0-1.805,0.906-1.805,2.016c0,3.729,6.463,15.424,8.554,18.853
						c0.665,1.108,2.186,3.729,2.186,5.039c0,1.211-3.612,2.117-4.562,2.117c-1.331,0-4.658-4.537-5.418-5.544L-36.12,1.512
						c-1.33-1.411-7.794-7.46-9.314-7.46c-0.856,0-1.046,1.411-1.046,2.217c0,2.118,0.475,5.142,0.76,5.747
						c3.897,3.226,16.159,14.114,16.159,19.254c0,1.613-1.331,3.026-5.608,3.226c-1.996,0.1-3.707-0.301-11.786-8.972
						c-3.676-3.898-6.265-7.381-7.34-12.208C-56.125,1.799-58.522,0-60.356,0c-1.425,0-2.091,0.605-3.326,1.411
						c3.136,4.033,6.463,8.67,6.463,14.214c0,1.815-0.76,5.041-3.042,5.041c-2.756,0-6.558-4.939-8.079-7.057
						c-4.943-6.754-4.848-8.568-4.373-12.4c-1.995-1.815-6.558-7.459-9.219-7.459c-1.141,0-1.806,0.906-1.806,2.016
						c0,3.729,6.463,15.424,8.554,18.853c0.666,1.108,2.187,3.729,2.187,5.039c0,1.211-3.612,2.117-4.563,2.117
						c-1.331,0-4.657-4.537-5.418-5.544L-96.475,1.512c-1.331-1.411-7.794-7.46-9.315-7.46c-0.855,0-1.046,1.411-1.046,2.217
						c0,2.118,0.476,5.142,0.761,5.747c3.897,3.226,16.158,14.114,16.158,19.254c0,1.613-1.33,3.026-5.608,3.226
						c-1.996,0.1-3.706-0.301-11.786-8.972c-3.675-3.898-6.264-7.38-7.339-12.207C-116.481,1.8-118.878,0-120.712,0
						c-1.425,0-2.091,0.605-3.327,1.411c3.137,4.033,6.464,8.67,6.464,14.214c0,1.815-0.76,5.041-3.042,5.041
						c-2.756,0-6.558-4.939-8.079-7.057c-4.943-6.754-4.848-8.568-4.373-12.4c-1.996-1.815-6.558-7.459-9.219-7.459
						c-1.141,0-1.806,0.906-1.806,2.016c0,3.729,6.463,15.424,8.554,18.853c0.665,1.108,2.187,3.729,2.187,5.039
						c0,1.211-3.613,2.117-4.563,2.117c-1.331,0-4.658-4.537-5.418-5.544l-13.497-14.719c-1.331-1.411-7.795-7.46-9.315-7.46
						c-0.855,0-1.046,1.411-1.046,2.217c0,2.118,0.475,5.142,0.761,5.747c3.897,3.226,16.158,14.114,16.158,19.254
						c0,1.613-1.33,3.026-5.608,3.226c-1.996,0.1-3.707-0.301-11.786-8.972c-4.752-5.041-7.699-9.375-7.889-16.835
						c-0.19-8.065,4.657-13.206,9.98-13.509c4.658-0.302,11.026,8.771,14.543,12.098c-0.57-9.577,0.665-10.384,1.711-11.795
						c0.95-1.109,1.996-1.916,3.422-1.916c5.227,0,12.641,9.276,16.729,12.502c2.091-1.312,3.231-2.017,5.702-2.017
						c3.302,0,5.953,1.668,8.281,3.831c0.144-7.595,4.827-12.409,9.968-12.702c4.658-0.302,11.026,8.771,14.543,12.098
						c-0.57-9.577,0.665-10.384,1.711-11.795c0.951-1.109,1.996-1.916,3.422-1.916c5.228,0,12.641,9.276,16.729,12.502
						c2.091-1.312,3.231-2.017,5.703-2.017c3.301,0,5.952,1.667,8.28,3.829c0.143-7.594,4.827-12.408,9.968-12.701
						c4.657-0.302,11.026,8.771,14.542,12.098c-0.57-9.577,0.666-10.384,1.712-11.795c0.95-1.109,1.995-1.916,3.421-1.916
						c5.228,0,12.642,9.276,16.729,12.502c2.091-1.312,3.232-2.017,5.703-2.017c4.373,0,7.604,2.925,10.456,6.049l-0.19,4.435
						C5.703,3.024,2.376,0,0,0"/>
				</g>
				<g id="g232" transform="translate(224.6544,49.55)">
					<path id="path234" d="M0,0c-5.418,1.208-9.6-7.157-9.6-10.787c0-3.427,3.421-3.932,5.988-4.233
						C2.281-15.726,4.657-3.327,4.657-3.226C4.657-0.303,1.331-0.303,0,0"/>
				</g>
				<g id="g236" transform="translate(377.3017,71.8288)">
					<path id="path238" d="M0,0C4.087,0,7.604,4.94,7.604,8.972c0,1.815-1.425,3.125-3.136,3.125c-3.708,0-8.27-3.628-8.27-7.762
						C-3.802,1.916-2.281,0,0,0"/>
				</g>
				<g id="g240" transform="translate(578.9938,45.8205)">
					<path id="path242" d="M-0.001,0c-2.187-2.118-4.181-4.033-7.32-4.033c-2.375,0-4.182,0.906-4.182,3.831
						c0,3.125,1.808,7.057,3.898,9.274c2.852,2.924,7.318,5.344,10.551,7.359C3.328,16.23-1.14,9.879-1.14,4.637
						C-1.14,2.923-0.666,1.613-0.001,0 M-112.126,2.168l-0.095,0.841l0.253,0.217l0.19-0.202
						C-111.894,2.749-112.008,2.458-112.126,2.168 M-334.665-3.327c-1.426-0.303-1.806,1.512-1.901,2.016
						c0,4.939,2.756,11.089,25.378,18.448l0.191-0.201C-329.818-3.226-332.764-2.924-334.665-3.327 M-259.766,49.297l0.19-0.201
						c-1.615-3.631-3.706-9.376-23.573-30.345l-0.19,0.201C-277.731,30.647-269.176,40.828-259.766,49.297 M82.975,21.573
						c0.667,0.202,1.141-0.404,1.141-1.109c0.097-1.714-5.607-8.67-13.972-11.695C72.711,15.424,78.224,20.263,82.975,21.573
						 M75.278-3.529c-3.041,0-6.179,1.31-5.893,5.142l0.19,2.218c18.249,6.35,22.907,13.811,22.907,18.751
						c0,4.032-3.803,4.839-6.844,4.839c-9.85,0.079-20.597-8.488-24.362-18.655l-0.066,0.407c-2.09-1.512-5.607-4.032-8.077-4.032
						c-1.522,0-2.187,0.302-3.233,1.311c2.377,3.528,7.89,13.003,7.89,17.037c0,2.016-0.951,3.326-2.851,3.326
						c-3.328,0-7.51-5.846-9.316-8.367c-2.566-3.428-5.133-7.258-4.752-11.896c-1.997-2.016-9.505-9.375-12.262-9.375
						c-1.901,0-2.281,2.318-2.281,3.931c0,1.614,0.951,4.336,1.425,5.948c3.422,3.025,12.357,13.207,12.357,17.743
						c0,2.117-4.373,2.32-5.703,2.32c-2.953,0-12.486-7.626-14.597-19.065c-2.707-2.325-5.281-5.577-9.167-4.827
						c1.806,3.931,3.708,7.459,3.708,11.895c0,3.023-0.57,5.142-3.422,5.947c1.046,0.606,2.187,1.211,2.187,2.723
						c0,2.722-3.138,3.729-5.228,3.63c-5.798-0.302-12.642-3.026-17.774-7.46c-4.373-3.561-7.522-7.601-8.404-13.121
						c-10.207-7.328-11.268-7.369-13.17-7.848c-1.141-0.302-2.376,1.31-2.281,2.52c0.094,2.319,0.665,3.932,8.079,12.601
						c1.044,1.21,2.947,3.428,2.947,5.142c0,1.411-1.046,2.923-1.711,4.032c-0.287,0.403-1.236,2.822-1.997,2.822
						c-1.14,0-3.517-2.015-4.466-2.822L-51.991,5.645l-0.19,0.201c2.092,3.932,8.839,12.097,8.839,16.534
						c0,2.621-1.33,4.637-3.895,4.637c-6.179,0-23.099-17.945-27.756-23.086c-0.286-0.302-1.425-1.612-1.9-1.612
						c-0.381,0-0.667,0.705-0.667,0.907c0,2.117,1.712,3.73,2.755,5.242c1.427,2.217,3.519,4.032,5.228,6.149
						c1.141,1.411,3.803,4.436,3.803,6.45c0,2.118-2.852,2.118-4.277,2.32c-4.603,0.651-12.05-8.023-14.804-16.588
						c-9.828-7.419-13.242-10.43-16.277-10.43c-2.186,0-2.851,1.311-2.851,3.53c0,6.048,5.417,14.314,8.65,18.751
						c10.456-0.707,11.216,3.024,15.684,12.601l-5.895,0.504c0.951,1.412,3.708,4.738,3.708,6.553c0,1.613-1.806,1.915-3.041,1.915
						c-5.514,0-7.605-4.738-10.456-8.871c-10.172-0.404-10.932-2.016-16.065-10.887l-1.044-1.814
						c5.038,0.806,3.231,0.403,9.029,0.403c-3.516-6.351-8.744-11.493-14.448-16.13l0.218-0.799
						c-2.817-1.909-5.909-3.737-7.726-3.737c-1.14,0-2.092,0.807-2.092,2.117c0,1.008-0.284,1.31,5.609,8.871
						c1.14,1.411,4.942,5.847,4.942,7.761c0,2.319-2.282,4.839-4.563,4.839c-5.228,0-22.526-16.13-27.185-20.061v3.931
						c6.083,6.352,36.311,39.619,36.311,46.475c0,2.015-2.568,2.721-4.088,2.721c-3.231,0-22.146-17.642-33.362-37.299
						c-2.263-3.91-4.109-7.414-5.071-11.435L-168.33-3.931l-0.189,0.2l7.128,14.115c0.665,1.31,1.997,3.629,1.997,5.141
						c0,1.714-1.711,5.142-3.612,5.142c-1.521,0-2.662-1.714-3.611-2.823L-176.79,5.947c-3.611-4.133-9.41-6.553-12.071-6.25
						c-0.855,0-1.426,0.202-1.521,1.009c-0.855,7.359,6.178,10.181,12.166,13.609l10.837,6.25c1.236,0.907,3.138,2.317,3.138,4.132
						c0,2.219-3.708,2.622-5.039,2.521c-6.818-0.658-25.26-9.978-27.752-21.928l-0.191,0.858c-3.802-2.923-8.746-8.267-13.783-8.267
						c-4.373,0-5.799,2.218-5.038,6.351c3.991,2.924,13.401,11.897,13.401,16.936c0,2.219-2.566,2.824-4.182,2.824
						c-4.515,0-12.899-7.524-16.197-16.762c-3.243-2.76-8.822-8.643-12.697-8.643c-1.426,0-2.946,1.21-2.946,2.823
						c0,4.033,4.657,8.972,7.414,11.493c2.186,1.914,3.992,3.427,3.992,6.552c-0.19,1.814-0.856,3.427-2.281,5.343
						c-0.951,1.209-6.179,0-15.114-1.31c0.381,0.906,0.666,1.814,0.666,2.822c0,0.907-0.761,1.714-1.711,1.714
						c-2.281,0-11.977-7.258-11.977-14.517c0-2.117,0.571-2.922,2.567-3.125c-0.464-0.699-0.943-1.383-1.436-2.052
						c-2.862-2.148-5.845-4.047-9.494-3.291c1.616,3.729,4.562,8.367,4.562,12.602c0,1.914-0.57,4.435-2.851,4.435
						c-5.608,0-13.214-9.879-13.214-15.726c0-1.614,0.571-2.621,1.332-3.932c-1.616-2.016-3.327-4.738-6.369-5.242
						c-3.612-0.504-5.893,4.738-4.182,11.089l14.829,15.424c6.083,6.251,20.15,21.372,20.15,30.545c0,1.916-0.855,3.731-2.756,3.731
						c-3.992,0-18.915-12.299-26.614-22.077c-7.027-8.868-12.387-18.886-13.047-30.544l-0.164,0.805
						c-4.088-2.923-9.506-8.065-13.498-8.065c-1.521,0-2.947,0.705-2.947,2.42c0,4.738,8.269,11.793,8.269,15.02
						c0,2.219-0.95,3.327-2.757,4.133c0.856,0.303,3.327,1.312,3.327,2.521c0,1.21-1.805,4.94-6.178,4.839
						c-11.026-0.302-35.739-13.206-35.358-25.808c0.19-5.241,5.703-11.895,8.365-11.895c2.185,0,8.269,5.24,10.074,6.754
						l8.744,7.459l0.191-0.201c-1.236-2.721-3.517-8.065-3.517-11.291c0-2.923,1.426-5.343,4.562-5.343
						c4.441,0,16.206,9.792,20.837,14.988c0.15-5.091,1.323-13.375,7.013-13.375c6.273,0,12.927,6.151,17.014,10.687
						c3.347,0.055,6.319,0.573,9.029,1.813l0.19-2.217c4.087,4.334,8.079,6.956,11.406,12.501l9.885,2.318l0.19-0.201
						c-3.802-4.839-8.744-10.182-8.744-17.038c0-3.831,2.471-7.762,6.463-7.762c4.469,0,12.681,7.608,17.45,12.708
						c-0.034-0.471-0.057-0.943-0.057-1.417c0-5.142,2.566-11.996,8.175-11.996c6.753,0,14.5,7.927,18.976,13.49
						c0.344-4.425,2.281-10.365,7.067-10.365c5.227,0,15.208,9.174,18.63,13.206l0.19-0.201l-6.654-13.812
						c-5.228-4.032-19.676-16.734-19.676-23.992c0-1.312,0.855-2.42,2.186-2.42c3.708,0,12.073,6.452,22.052,23.287l17.911,14.224
						c-0.01-0.309-0.041-0.6-0.041-0.917c0-2.319,0.475-10.182,3.801-10.182c3.041,0,7.794,10.687,24.048,22.481l0.19-0.202
						c-3.423-4.738-9.981-12.398-9.981-18.75c0-2.722,1.521-5.344,4.373-5.344c5.083,0,16.077,9.323,20.703,13.084
						c-0.97-2.612-1.789-5.642-1.789-8.346c0-4.032,2.281-6.753,5.988-6.753c7.359,0,16.522,8.94,22.337,14.65
						c0-0.011-0.001-0.022-0.001-0.033c0-3.629,1.33-11.492,5.893-11.492c1.711,0,3.042,1.512,4.087,2.822
						c4.468,5.847,9.79,11.896,14.733,17.44c0.665,0.705,2.757,3.125,3.706,3.125c0.382,0,0.665-0.303,0.665-0.706
						c0-0.303-0.379-1.109-0.57-1.311c-6.177-9.979-8.459-14.616-8.364-17.541c0.095-2.419,1.901-4.234,4.182-4.234
						c3.231,0,6.653,4.133,8.839,6.351L-37.638,9.98l0.19-0.202c-2.376-4.133-7.034-11.291-7.034-16.332
						c0-2.924,1.997-5.847,4.847-5.847c4.61,0,15.486,8.915,21.223,13.73c0.838-8.122,5.133-12.721,9.762-12.721
						c5.99,0,10.646,3.226,14.638,7.56c5.893,0,9.795,1.753,13.459,5.798c0.473-7.094,4.128-13.661,9.353-13.661
						c3.708,0,13.307,8.872,15.97,12.098c1.614-1.209,2.944-2.622,4.942-2.622c4.302,0,7.425,2.044,10.222,4.957
						c-0.047-0.643-0.072-1.288-0.053-1.932C60.07-5.847,63.301-12.4,70.239-12.4c9.41,0,19.866,9.476,25.666,16.633l-0.855,3.832
						C90.01,3.831,82.026-3.529,75.278-3.529"/>
				</g>
				<g id="g244" transform="translate(688.3926,49.55)">
					<path id="path246" d="M0,0C-5.417,1.209-9.6-7.157-9.6-10.787c0-3.427,3.423-3.932,5.988-4.233
						C2.282-15.726,4.658-3.327,4.658-3.226C4.658-0.303,1.331-0.303,0,0"/>
				</g>
				<g id="g248" transform="translate(770.8006,85.5391)">
					<path id="path250" d="M0.001,0c-1.712-5.747-7.604-15.424-14.354-22.077l-0.189,0.201C-10.076-11.492-4.658-2.419,0.001,0
						 M7.319,8.267c0.095,1.311-0.286,3.729-1.901,3.729c-3.041,0-12.072-9.375-20.436-20.363
						c-4.783-6.243-8.416-14.48-9.817-22.793l-5.01-4.425c-1.709-1.512-5.892-5.041-8.172-5.041c-0.951,0-1.712,0.907-1.712,1.815
						c0,6.955,11.691,14.615,11.691,18.548c-0.284,2.118-0.854,3.932-1.425,5.445c-0.57,1.411-1.14,1.914-1.519,1.914
						c-2.758,0-20.247-12.398-27.851-22.681c-0.381-0.505-1.235-1.412-1.901-1.412c-0.571,0-1.046,0.505-1.046,1.11
						c0,2.418,11.977,12.601,11.977,16.531c0,0.606,0.476,2.017-5.228,2.219c-1.616,0-2.47-0.101-3.706-1.21
						c-5.512-4.94-11.502-15.122-11.216-22.077c0.095-3.428,1.14-9.779,5.322-9.779c2.568,0,6.083,4.94,7.51,6.855
						c4.277,5.847,9.125,11.089,14.638,15.424l0.19-0.202c-3.042-4.637-8.175-11.291-8.175-17.339c0-3.428,1.711-6.654,5.323-6.654
						c6.086,0,14.366,9.539,19.708,15.081c-0.016-0.457-0.035-0.916-0.035-1.37c0-5.948,1.522-13.105,8.461-13.105
						c8.174,0,17.108,10.182,22.336,15.929l-1.33,3.024C0.19-36.191-7.129-42.643-12.357-42.643c-2.566,0-3.896,2.017-4.753,4.334
						c-0.475,2.421-0.189,5.243,0.667,6.957C4.183-10.181,6.654-1.31,7.319,8.267"/>
				</g>
				<g id="g252" transform="translate(331.1485,307.9581)">
					<path id="path254" fill="#39E20B" d="M0,0c0.442-0.004,0.731,0.224,0.881,0.531l5.406,11.022
						c0.15,0.307-0.003,0.538-0.267,0.541c-2.737,0.023-4.717-0.035-6.501-1.865c-0.364-0.381-0.615-0.533-0.791-0.53
						c-0.442,0.004,0.141,2.459-0.389,2.462l-12.446,0.112c-0.354,0.002-0.643-0.226-0.83-0.608L-36.86-33.036
						c-0.186-0.383-0.035-0.615,0.319-0.618l12.888-0.115c0.44-0.004,0.944,0.299,1.132,0.683L-10.322-8.21
						C-7.28-2.01-4.502,0.04,0,0"/>
				</g>
				<g id="g256" transform="translate(354.1162,319.9006)">
					<path id="path258" fill="#39E20B" d="M0,0l-12.534,0.111c-0.53,0.006-1.07-0.374-1.333-0.91l-21.735-44.318
						c-0.15-0.307,0.014-0.693,0.368-0.695l12.976-0.116c0.354-0.002,0.768,0.301,0.919,0.607L0.508-0.773
						C0.696-0.39,0.53-0.004,0,0"/>
				</g>
				<g id="g260" transform="translate(295.9249,318.5728)">
					<path id="path262" fill="#39E20B" d="M0,0l-3.228-6.582C-3.98-8.113-5.64-8.791-6.876-8.779
						C-7.23-8.776-7.383-8.544-7.232-8.238l4.804,9.798c0.151,0.305,0.491,0.457,0.844,0.453C-0.525,2.004,0.676,1.378,0,0
						 M-10.872-22.351l-3.942-8.037c-0.638-1.3-2.324-2.208-3.736-2.196c-0.442,0.004-0.507,0.235-0.357,0.542l5.481,11.174
						c0.188,0.384,0.477,0.612,0.831,0.608C-11.183-20.272-10.235-21.049-10.872-22.351 M0.245-14.685l0.075,0.153
						C10.4-12.239,13.941-5.197,16.194-0.605c3.115,6.353,0.224,13.836-11.251,13.937l-16.419,0.147
						c-0.618,0.005-1.16-0.375-1.422-0.91l-27.291-55.647c-0.225-0.458-0.147-0.844,0.471-0.849l16.418-0.146
						C-5.026-44.236,1.293-31.53,3.207-27.627C6.136-21.657,4.943-16.495,0.245-14.685"/>
				</g>
				<g id="g264" transform="translate(237.341,294.5701)">
					<path id="path266" fill="#39E20B" d="M0,0l-3.642-7.424c-0.45-0.918-1.345-1.295-2.051-1.289s-1.224,0.395-0.775,1.314
						l2.779,5.664c0.825,1.684,2.929,2.357,3.459,2.353C0.085,0.538,0.15,0.307,0,0 M12.862-6.495
						c-1.942,0.018-2.207,0.02-1.906,0.632L21.128,14.88c2.928,5.971,0.134,11.3-9.576,11.386
						c-9.18,0.081-17.23-5.305-20.195-11.352c-1.765-3.597-1.953-3.979-1.335-3.985l11.478-0.641
						c0.442-0.004,0.907,0.223,1.094,0.606c1.727,3.521,1.953,3.98,3.365,3.967c0.795-0.006,1.062-0.547,0.536-1.619
						c-1.314-2.679-2.08-3.517-9.687-5.834c-5.719-1.716-11.974-4.89-14.94-10.937l-2.778-5.663
						c-3.754-7.655,0.406-10.383,4.113-10.415c3.09-0.028,5.922,1.408,7.455,2.548c0.831,0.607,1.258,0.756,1.348,0.756
						C-7.819-16.304-7.63-16.46-7.451-17c0.461-1.772,1.488-2.934,5.547-2.97c4.943-0.044,10.916,4.362,12.756,8.112l2.328,4.746
						C13.33-6.806,13.215-6.498,12.862-6.495"/>
				</g>
				<g id="g268" transform="translate(343.6285,322.3774)">
					<path id="path270" fill="#39E20B" d="M0,0l10.77-0.096c0.53-0.005,1.07,0.375,1.295,0.834l4.805,9.798
						c0.188,0.382-0.141,0.616-0.494,0.619L5.517,11.252c-0.44,0.004-1.107-0.452-1.295-0.834l-4.655-9.492
						C-0.658,0.466-0.442,0.004,0,0"/>
				</g>
				<g id="g272" transform="translate(521.6172,304.5732)">
					<path id="path274" fill="#39E20B" d="M-0.001,0l-8.933-18.216c-0.451-0.919-1.192-1.527-2.164-1.518
						c-0.971,0.007-1.112,0.624-0.661,1.543l8.934,18.217c0.413,0.842,1.191,1.526,2.162,1.518C0.222,1.536,0.413,0.842-0.001,0
						 M5.345,13.791c-9.092,0.08-17.547-4.687-21-11.73l-10.85-22.12c-3.454-7.042,0.324-11.996,9.328-12.076
						c9.091-0.081,17.547,4.688,21.04,11.806l10.66,21.738C18.202,8.91,14.438,13.709,5.345,13.791"/>
				</g>
				<g id="g276" transform="translate(573.2189,317.9523)">
					<path id="path278" fill="#39E20B" d="M0,0l-11.388,0.101c-0.264,0.003-0.729-0.224-1.005-0.605l-8.977-13.604
						c-0.315-0.459-0.604-0.687-0.693-0.687c-0.088,0.001-0.152,0.233-0.015,0.693l4.6,13.72c0.063,0.307-0.089,0.539-0.442,0.541
						l-11.565,0.104c-0.264,0.001-0.554-0.227-0.614-0.534l-13.538-44.774c-0.136-0.46,0.104-0.694,0.457-0.696l12.094-0.108
						c0.353-0.004,0.731,0.225,1.008,0.607L0.192-0.693C0.469-0.311,0.354-0.002,0,0"/>
				</g>
				<g id="g280" transform="translate(351.484,272.9522)">
					<path id="path282" fill="#39E20B" d="M0,0c-0.637-1.301-2.819-1.588-4.319-1.575c-0.706,0.006-4.73,0.119-3.715,2.185
						c0.186,0.382,0.589,0.841,1.054,1.067c1.49-0.397,3.988-0.728,6.069-0.822C-0.029,0.846,0.225,0.46,0,0 M7.796,25.838
						l4.166,8.497c0.488,0.995,1.331,1.448,2.214,1.44c0.795-0.006,1.062-0.546,0.573-1.542l-4.129-8.419
						c-0.487-0.995-1.192-1.528-2.074-1.52C7.662,24.302,7.307,24.843,7.796,25.838 M2.595,10.894
						c-3.394,0.491-4.279,1.038-3.83,1.957c0.151,0.305,0.515,0.686,1.131,1.219c0.77-0.238,2.372-0.406,3.432-0.415
						c7.591-0.067,15.027,4.249,18.144,10.602l5.592,11.404c1.313,2.679,1.72,5.135,1.261,6.37c0.756,0.455,5.417,1.643,5.792,2.408
						c0.226,0.46-0.206,4.46-2.413,4.481c-1.942,0.017-5.563-2.488-6.507-3.325c-1.124,0.778-3.056,1.18-5.616,1.203
						c-7.679,0.069-15.204-4.246-18.319-10.6l-5.707-11.634c-1.501-3.061-1.084-6.371,0.436-8.154
						c-2.795-1.359-6.578-4.553-7.93-7.309c-1.238-2.525-1.219-4.294-0.434-5.224c-2.202-1.056-4.289-2.96-5.566-5.562
						c-2.139-4.363,0.098-8.842,9.984-8.93c7.679-0.068,15.283,3.324,18.587,10.059C14.161,6.64,11.476,9.662,2.595,10.894"/>
				</g>
				<g id="g284" transform="translate(585.283,302.7778)">
					<path id="path286" fill="#39E20B" d="M0,0c-0.188-0.383-0.453-0.381-2.483-0.363C-2.748-0.36-2.938-0.205-2.826,0.025
						l1.878,3.828C-0.385,5,0.457,5.454,1.165,5.447C2.577,5.436,2.402,4.898,0,0 M4.885,15.024
						c-7.15,0.064-16.834-3.233-21.264-12.265l-9.309-18.983c-4.28-8.726-1.749-14.59,7.696-14.674
						C-9.87-30.971-0.675-28.131,4.13-18.334l2.404,4.899c0.224,0.46,0.022,0.768-0.47,0.85l-11.125,0.637
						c-0.529,0.004-0.945-0.299-1.094-0.605l-2.29-4.67c-0.564-1.147-1.583-1.599-2.2-1.594c-0.794,0.008-1.188,0.471-0.587,1.697
						l5.895,12.016c0.186,0.384,0.476,0.612,0.828,0.608l14.742-0.131c0.442-0.004,0.945,0.299,1.132,0.683l2.291,4.668
						C17.334,8.226,14.86,14.935,4.885,15.024"/>
				</g>
				<g id="g288" transform="translate(513.4354,330.0152)">
					<path id="path290" fill="#39E20B" d="M0,0L-24.54,0.219c-0.529,0.004-1.071-0.376-1.384-0.833l-9.514-15.061
						c-0.261-0.536-0.589-0.84-0.765-0.839c-0.176,0.003-0.24,0.233-0.066,0.769l4.821,15.257c0.138,0.46-0.066,0.769-0.507,0.773
						l-23.657,0.21c-0.441,0.004-0.894-0.376-1.083-0.759l-27.439-55.953c-0.151-0.306,0.016-0.692,0.368-0.695l15.009-0.133
						c0.617-0.006,1.031,0.298,1.295,0.834l10.998,22.427c0.3,0.612,0.664,0.993,0.929,0.991c0.265-0.003,0.507-0.235,0.132-1.539
						l-6.674-21.927c-0.088-0.537,0.117-0.847,0.557-0.851l9.976-0.089c0.441-0.004,0.958,0.146,1.271,0.605l16.113,23.457
						c0.867,1.222,1.194,1.528,1.37,1.525c0.176-0.001,0.152-0.232-0.148-0.843l-11.75-23.959c-0.262-0.535,0.028-0.846,0.558-0.85
						l15.979-0.142c0.527-0.006,1.119,0.298,1.346,0.756L0.557-0.85C0.82-0.315,0.618-0.005,0,0"/>
				</g>
				<g id="g292" transform="translate(408.5819,319.4161)">
					<path id="path294" fill="#39E20B" d="M0,0C-2.56,0.023-5.166-0.953-7.267-2.165c-0.593-0.301-1.02-0.452-1.108-0.45
						c-0.088,0-0.19,0.155,0.073,0.69l6.832,13.931c0.226,0.46,0.073,0.692-0.545,0.697l-12.446,0.111
						c-0.618,0.005-1.083-0.221-1.421-0.91l-27.928-56.948c-0.15-0.306,0.014-0.692,0.368-0.695l12.623-0.112
						c0.353-0.004,0.768,0.3,0.918,0.606l15.504,31.612c0.563,1.149,1.458,1.525,2.164,1.518c0.706-0.005,1.224-0.395,0.661-1.543
						l-15.541-31.688c-0.15-0.306,0.001-0.539,0.355-0.542l12.182-0.108c0.264-0.002,0.642,0.225,0.755,0.454L4.608-7.959
						C7.537-1.989,3.708-0.032,0,0"/>
				</g>
				<g id="g296" transform="translate(420.1254,285.6421)">
					<path id="path298" fill="#39E20B" d="M0,0c-0.265,0.003-0.378,0.311-0.229,0.617l9.872,20.13
						c0.302,0.613,0.653,0.611,3.391,0.586c0.353-0.004,0.731,0.224,0.879,0.53l5.443,11.099c0.264,0.535-0.001,0.537-2.738,0.562
						c-0.442,0.004-0.595,0.236-0.368,0.696l3.152,6.429c0.264,0.536,0.338,0.689-0.546,0.697L6.147,41.458
						c-0.354,0.004-0.731-0.224-0.882-0.529l-3.303-6.736c-0.262-0.537-0.439-0.534-2.47-0.516
						c-0.177,0.001-0.466-0.227-0.579-0.457l-5.481-11.175c-0.262-0.536-0.085-0.537,1.77-0.554c0.352-0.003,0.417-0.235,0.267-0.54
						L-14.93-0.251c-4.504-9.186-2.009-12.053,3.287-12.099C-2.639-12.431,1.078-4.853,3.216-0.49C3.442-0.031,3.09-0.027,0,0"/>
				</g>
				<g id="g300" transform="translate(82.3941,425.0278)">
					<path id="path302" fill="#39E20B" d="M0,0c346.851,200.105,881.353-34.307,647.307-242.423
						C897.616-34.307,349.376,205.332,11.373,6.13"/>
				</g>
			</g>
		</g>
	</g>
</g>
</svg>
