<?xml version="1.0" encoding="utf-8"?>
<!-- Generator: Adobe Illustrator 22.0.1, SVG Export Plug-In . SVG Version: 6.00 Build 0)  -->
<svg version="1.1" id="Laag_1" xmlns="http://www.w3.org/2000/svg" xmlns:xlink="http://www.w3.org/1999/xlink" x="0px" y="0px"
	 viewBox="0 0 423.3 284" style="enable-background:new 0 0 423.3 284;" xml:space="preserve">
<style type="text/css">
	.st0{fill:#39E20B;}
</style>
<path d="M162.7,264.3c2-1.5,4-3.1,6-4.7h-51.4c-2.4,1-4.3,2.7-5.6,4.7H162.7z"/>
<path d="M191,234.3c1-1.5,2-3.1,2.9-4.7h-32c-1.4,1.7-2.9,3.2-4.3,4.7H191z"/>
<path d="M109.7,269.7c-0.2,1.6-0.1,3.2,0.3,4.7h36.3c2.8-1.5,5.5-3,8.3-4.7H109.7z"/>
<path d="M113,279.9c2.4,2.6,5.8,4.1,9.4,4.1c1.5,0,3.1-0.3,4.7-0.9c2.5-1,5.1-2.1,7.8-3.2H113z"/>
<path d="M197,224.1c0.8-1.4,1.5-2.9,2.3-4.4h-29.9c-1,1.5-2,3-3,4.4H197z"/>
<path d="M183.8,244.2c1.2-1.4,2.3-2.9,3.4-4.4h-35.4c-1.8,1.6-3.7,3-5.5,4.4H183.8z"/>
<path d="M174.8,254.1c1.4-1.4,2.9-2.9,4.3-4.4h-41c-2.7,1.6-5.4,3.1-8.2,4.4H174.8z"/>
<path d="M201.8,214.2c0.6-1.4,1.3-2.9,1.9-4.4h-28.6c-0.8,1.5-1.6,3-2.4,4.4H201.8z"/>
<path d="M205.8,204.4c0.6-1.5,1.1-3.1,1.6-4.7h-27.5c-0.7,1.6-1.4,3.2-2.1,4.7H205.8z"/>
<path d="M301.2,194.2h47.3c0-0.2,0.1-0.3,0.1-0.5c0.4-1.4,0.5-2.9,0.4-4.3h-61.4C291.7,190.8,296.2,192.3,301.2,194.2z"/>
<path d="M270.3,184h76.8c-1.3-2.1-3.3-3.8-5.7-4.7h-81.8C262.2,181.1,265.6,182.4,270.3,184z"/>
<path d="M202.2,171.3c0.3,0.9-0.4,1.7,0,2.4h117.3c-0.6-0.2-1.2-0.3-1.7-0.5c-4-1.3-8.4-2.5-12.7-3.9H203.2
	C203.4,170,201.9,170.7,202.2,171.3z"/>
<path d="M315.2,199.6c3.5,1.4,11,4.2,17.2,4.2c0,0,12.1-0.6,13.4-4.2H315.2z"/>
<path d="M283.2,113.3c-0.7,0.4-1.7,0.8-2.7,1.2h10.8C291.5,110.9,288.5,110.6,283.2,113.3z"/>
<path d="M202.5,63.5h66.7c-1.3-1.5-2.7-3-4.1-4.4h-59.9C204.4,60.5,203.5,62,202.5,63.5z"/>
<path d="M206.7,93.9c1.4-1.5,2.7-3,4-4.4H182c-1.4,1.5-2.9,2.9-4.5,4.4H206.7z"/>
<path d="M273.8,69h-34.9c1.7,1.4,3.4,3,5.2,4.8h33.2C276.1,72.2,275,70.6,273.8,69z"/>
<path d="M229.7,33.8c-0.3-0.1-0.6-0.2-0.9-0.3c-0.1,0-0.2-0.1-0.3-0.1c-0.1,0-0.2-0.1-0.2-0.1c-0.1,0-0.2,0-0.2-0.1
	c-0.2-0.1-0.4-0.1-0.6-0.1c-0.1,0-0.3,0-0.4-0.1c-0.2,0-0.4-0.1-0.6-0.1c-0.2,0-0.3,0-0.5,0c-0.2,0-0.3,0-0.5,0c-0.2,0-0.4,0-0.5,0
	c-0.2,0-0.3,0-0.5,0c-0.2,0-0.4,0-0.6,0.1c-0.1,0-0.3,0-0.4,0.1c-0.2,0-0.4,0.1-0.6,0.1c-0.1,0-0.3,0.1-0.4,0.1
	c-0.2,0.1-0.4,0.1-0.5,0.2c-0.1,0-0.2,0.1-0.4,0.1H229.7z"/>
<path d="M196.9,104c1.6-1.5,3.1-3.1,4.5-4.5h-30.1c-0.8,0.6-1.5,1.3-2.3,1.9c-0.9,0.8-1.7,1.7-2.3,2.6H196.9z"/>
<path d="M223.6,73.8c1.3-1.7,2.5-3.2,3.7-4.8h-28.4c-1.1,1.6-2.2,3.2-3.4,4.8H223.6z"/>
<path d="M215.3,84c1.4-1.6,2.7-3.2,3.9-4.8h-28c-1.3,1.6-2.6,3.2-4.1,4.8H215.3z"/>
<path d="M283.2,84c-0.7-1.6-1.6-3.2-2.5-4.8h-31.4c1.4,1.5,2.7,3.1,3.8,4.8H283.2z"/>
<path d="M216,39.3c-0.7,1.3-1.5,2.8-2.3,4.4h34.1c-2.2-1.6-4.4-3.1-6.6-4.4H216z"/>
<path d="M210.8,49.2c-0.7,1.4-1.5,2.9-2.4,4.4h51.3c-1.6-1.5-3.3-3-5-4.4H210.8z"/>
<path d="M286.3,93.9c-0.2-1.4-0.5-2.9-1-4.4h-28.7c0.9,1.5,1.7,3,2.4,4.4H286.3z"/>
<path d="M285.3,104c0.5-1.4,0.9-2.9,1.1-4.5h-24.3c1,1.7,2,3.3,3,4.5H285.3z"/>
<path d="M297.2,84h54.2c0-0.6,0.1-1.1,0.1-1.7c0-1.1-0.1-2.1-0.3-3.1h-53.9C297.2,80.8,297.1,82.4,297.2,84z"/>
<path d="M298.6,69.8c-0.3,1.3-0.6,2.6-0.8,4h51.3c-1-1.7-2.3-3.3-3.9-4.8h-46.4C298.8,69.3,298.7,69.5,298.6,69.8z"/>
<path d="M300.6,99.5c0.7,1.6,1.6,3.1,2.6,4.5h38.4c1.5-1.5,2.8-3,4-4.5H300.6z"/>
<path d="M307.3,59.1c-2.3,0.9-4.3,2.4-5.9,4.4h35.9c-3.8-1.9-8.1-3.4-12.7-4.4H307.3z"/>
<path d="M307.6,109.3c1.8,1.7,2.6,3,5.2,4c4.6,1.9,11,1.7,14.1,0.3s5.2-2.5,8.1-4.4H307.6z"/>
<path d="M297.6,89.5c0.2,1.5,0.5,3,0.9,4.4h50.3c0.7-1.5,1.2-3,1.6-4.4H297.6z"/>
<path d="M192.1,249.7c0.1,1.6,0.3,3.1,0.8,4.4h18.9c2.5-1.5,5-3,7.7-4.4H192.1z"/>
<path d="M199.1,234.3h109.8c-0.2-0.3-0.4-0.6-0.7-0.9c-1.1-1.3-2.2-2.6-3.3-3.9H205C202.9,231,200.9,232.6,199.1,234.3z"/>
<path d="M192.8,244.2h39.7c5.2-1.6,11.2-2.8,18.4-3.4c9.7-0.7,20.2,0.8,28.3,3.4h31.5c0.4-1.4,0.4-2.9,0.3-4.4H194.7
	C193.9,241.2,193.2,242.6,192.8,244.2z"/>
<path d="M258.7,212.7c-0.5,0-1,0-1.5,0c-4.3,0.2-8.7,0.7-13.1,1.5h46.8c-1.4-1.5-2.9-2.9-4.3-4.4h-31.3
	C256.4,210.8,257.6,211.7,258.7,212.7z"/>
<path d="M290,249.7c2,2.6,5.4,3.7,8.5,3.8c1.7,0.2,3.4-0.1,5.3-1c1.1-0.5,2.1-1.1,3-1.9c0.4-0.3,0.7-0.6,1-1H290z"/>
<path d="M280.9,204.4c-1.7-1.6-3.3-3.2-5.1-4.7h-35c2.5,1.5,4.9,3.1,7.3,4.7H280.9z"/>
<path d="M269.8,194.2c-1.8-1.6-3.7-3.2-5.6-4.7h-46.4c4.4,1.3,8.6,2.9,12.7,4.7H269.8z"/>
<path d="M224.3,219.7c-2.1,0.8-4.1,1.7-6.1,2.6c-1.2,0.6-2.5,1.2-3.8,1.9h85.7c-1.3-1.5-2.7-2.9-4-4.4H224.3z"/>
<path d="M251.1,179.2h-49c0.6,1.7,1.6,3.3,3.2,4.7h52C255.3,182.4,253.2,180.8,251.1,179.2z"/>
<path d="M190.9,189.4h-7.2c-0.6,1.6-1.1,3.2-1.7,4.7h19.6C197.7,192.6,193.9,190.9,190.9,189.4z"/>
<path d="M263,124.4h25c0.6-1.4,1.2-2.9,1.7-4.4h-20.8c-1.4,0.8-2.8,1.8-4.2,2.9 M255.4,134.3h28.4c0.6-1.4,1.2-2.9,1.9-4.4h-25.9
	 M252.2,139.7l-8.2,4.4h36.4c0.4-1.5,0.8-2.9,1.3-4.4 M261.6,147.5C261.6,147.5,261.6,147.5,261.6,147.5 M230.6,154h49.8
	c-0.6-1.4-0.8-2.8-0.8-4.4h-41.8 M208,163.9h83.5c-2.8-1.3-5.2-2.8-7-4.4h-61.3 M222.3,169.4h-8.8"/>
<path class="st0" d="M-0.9,67.5c209-178.5,531.1,30.6,390.1,216.2C528.5,112.2,197.5-105,6,62"/>
</svg>
